<?xml version="1.0" encoding="UTF-8" standalone="no"?>
<!-- Created with Inkscape (http://www.inkscape.org/) -->

<svg
   version="1.1"
   id="svg1"
   width="242.66667"
   height="242.66667"
   viewBox="0 0 242.66667 242.66667"
   sodipodi:docname="amazon.svg"
   inkscape:version="1.4 (86a8ad7, 2024-10-11)"
   xmlns:inkscape="http://www.inkscape.org/namespaces/inkscape"
   xmlns:sodipodi="http://sodipodi.sourceforge.net/DTD/sodipodi-0.dtd"
   xmlns:xlink="http://www.w3.org/1999/xlink"
   xmlns="http://www.w3.org/2000/svg"
   xmlns:svg="http://www.w3.org/2000/svg">
  <defs
     id="defs1">
    <linearGradient
       inkscape:collect="always"
       xlink:href="#linearGradient5"
       id="linearGradient6"
       x1="121.11393"
       y1="8.337553"
       x2="123.30802"
       y2="249.24895"
       gradientUnits="userSpaceOnUse"
       gradientTransform="translate(1.1940943,-1.1983196)" />
    <linearGradient
       id="linearGradient5"
       inkscape:collect="always">
      <stop
         style="stop-color:#e6e6e6;stop-opacity:1;"
         offset="0"
         id="stop5" />
      <stop
         style="stop-color:#e6e6e6;stop-opacity:0;"
         offset="1"
         id="stop6" />
    </linearGradient>
  </defs>
  <sodipodi:namedview
     id="namedview1"
     pagecolor="#ffffff"
     bordercolor="#000000"
     borderopacity="0.25"
     inkscape:showpageshadow="2"
     inkscape:pageopacity="0.0"
     inkscape:pagecheckerboard="0"
     inkscape:deskcolor="#d1d1d1"
     inkscape:zoom="2.2788461"
     inkscape:cx="121.11393"
     inkscape:cy="121.33334"
     inkscape:window-width="1920"
     inkscape:window-height="1057"
     inkscape:window-x="1358"
     inkscape:window-y="-8"
     inkscape:window-maximized="1"
     inkscape:current-layer="g1" />
  <g
     inkscape:groupmode="layer"
     inkscape:label="Image"
     id="g1">
    <circle
       style="fill:url(#linearGradient6);fill-opacity:1"
       id="path2-6"
       cx="123.35444"
       cy="122.12237"
       r="116.50633" />
    <path
       style="fill:#000000"
       d="m 102.39186,201.54945 c -19.173347,-2.58906 -42.414457,-11.82221 -55.991237,-22.24402 -6.7628,-5.19127 -8.73286,-8.82134 -6.17534,-11.37885 1.00022,-1.00022 3.48736,-0.10364 8.45837,3.04915 21.17861,13.43219 38.64691,20.04548 59.708207,22.60483 23.59147,2.86681 44.9911,-0.67552 68.11534,-11.27528 7.21355,-3.30657 14.0386,-6.01195 15.16677,-6.01195 2.77674,0 2.59918,4.42463 -0.28211,7.02959 -4.24977,3.8422 -24.832,12.89997 -35.66666,15.69609 -12.44638,3.21206 -38.96716,4.47036 -53.33334,2.53044 z m 91.33334,-3.69263 c 0,-1.44762 1.49414,-5.84161 3.32031,-9.76443 7.07306,-15.19374 3.08757,-20.13497 -13.96855,-17.31821 -5.05932,0.83553 -10.50666,1.51915 -12.10519,1.51915 -2.55362,0 -2.68429,-0.26843 -1.0765,-2.21131 7.31093,-8.83461 34.39276,-9.59835 37.66835,-1.06229 1.87558,4.88769 0.55875,11.44007 -4.17176,20.75808 -4.94108,9.73281 -9.66666,13.68226 -9.66666,8.07901 z M 93.343173,170.4797 c -8.76559,-2.4707 -15.54171,-8.33689 -20.28464,-17.56069 -3.60302,-7.00696 -3.99306,-8.97888 -3.9301,-19.86901 0.0564,-9.75759 0.65413,-13.2919 3.09824,-18.31996 7.6872,-15.814242 21.82531,-23.507842 49.831857,-27.117232 5.38006,-0.69336 6.33258,-1.25547 6.32835,-3.73452 -0.003,-1.60507 -1.19392,-4.868301 -2.64707,-7.251635 -2.35765,-3.866823 -3.29518,-4.333333 -8.70859,-4.333333 -7.89246,0 -11.96781,2.819089 -14.8014,10.238748 l -2.299987,6.02243 -8.76899,-0.91434 c -4.82294,-0.50289 -10.25502,-1.61305 -12.07129,-2.46702 -10.11475,-4.755751 -4.13133,-25.556796 10.14114,-35.255194 15.392127,-10.459223 45.593447,-11.246005 61.209767,-1.594593 5.29916,3.275063 12.21678,10.910172 14.30143,15.784756 0.87107,2.036838 1.8524,16.151959 2.33031,33.518551 0.78918,28.677512 0.98341,30.365592 4.40595,38.293162 4.27011,9.89076 4.46747,14.23554 0.91156,20.06774 -2.86326,4.69617 -13.70308,12.30577 -17.52948,12.30577 -4.31469,0 -9.1761,-3.08502 -11.96028,-7.58992 l -2.75975,-4.46537 -4.81333,4.22616 c -10.90232,9.57237 -28.58773,13.79134 -41.983697,10.0155 z m 27.859847,-10.1593 c 3.01281,-1.3072 8.39609,-5.17291 11.96284,-8.59046 l 6.48502,-6.21374 6.48094,7.38857 c 3.56452,4.0637 7.51399,7.38856 8.77661,7.38856 3.70991,0 12.1501,-8.57466 12.1501,-12.34367 0,-1.82454 -1.35,-6.24362 -3,-9.82018 -2.73384,-5.92589 -3.06397,-9.10527 -3.72098,-35.83615 -0.79467,-32.331181 -1.44219,-35.314282 -9.33329,-42.998236 -7.37268,-7.179139 -17.03959,-10.015083 -31.94573,-9.371797 -15.16,0.654242 -24.309687,4.104594 -31.246847,11.783202 -4.77552,5.285926 -7.4462,13.76044 -5.08167,16.12497 0.73643,0.736428 3.66161,1.637947 6.50041,2.003377 4.85734,0.625271 5.31856,0.370123 7.82811,-4.330526 3.858267,-7.226941 8.629137,-10.211257 17.500247,-10.946919 13.60049,-1.127859 20.28436,5.227126 21.50614,20.447927 l 0.67473,8.40578 -6.50722,0.80417 c -14.72758,1.82006 -26.88904,4.58545 -33.173897,7.543422 -9.37653,4.41306 -17.09373,12.53555 -19.25951,20.27095 -2.19095,7.8253 -1.26639,21.34752 1.9185,28.05917 5.93788,12.51316 25.249607,17.27601 41.485497,10.23158 z m -12.69096,-13.15073 c -7.73128,-2.26134 -11.492947,-14.48483 -7.59699,-24.68627 3.90761,-10.23192 9.46111,-13.61236 24.68774,-15.02752 l 9.04599,-0.84074 0.82573,6.02436 c 1.04948,7.65679 -0.93582,20.01453 -4.08036,25.39873 -4.11841,7.0517 -15.0618,11.41882 -22.88211,9.13144 z m 12.08081,-8.31725 c 3.71797,-1.9898 7.7345,-11.41155 7.76971,-18.22576 0.029,-5.6079 -0.0198,-5.66667 -4.7036,-5.66667 -9.75121,0 -16.60045,6.268 -16.60045,15.19169 0,8.6335 6.20569,12.62291 13.53434,8.70074 z"
       id="path1" />
  </g>
</svg>
