<?xml version="1.0" encoding="UTF-8" standalone="no"?>
<!-- Created with Inkscape (http://www.inkscape.org/) -->

<svg
   version="1.1"
   id="svg1"
   width="242.66667"
   height="242.66667"
   viewBox="0 0 242.66667 242.66667"
   sodipodi:docname="insta.svg"
   inkscape:version="1.4 (86a8ad7, 2024-10-11)"
   xmlns:inkscape="http://www.inkscape.org/namespaces/inkscape"
   xmlns:sodipodi="http://sodipodi.sourceforge.net/DTD/sodipodi-0.dtd"
   xmlns:xlink="http://www.w3.org/1999/xlink"
   xmlns="http://www.w3.org/2000/svg"
   xmlns:svg="http://www.w3.org/2000/svg">
  <defs
     id="defs1">
    <linearGradient
       id="linearGradient5"
       inkscape:collect="always">
      <stop
         style="stop-color:#e6e6e6;stop-opacity:1;"
         offset="0"
         id="stop5" />
      <stop
         style="stop-color:#e6e6e6;stop-opacity:0;"
         offset="1"
         id="stop6" />
    </linearGradient>
    <linearGradient
       inkscape:collect="always"
       xlink:href="#linearGradient5"
       id="linearGradient6"
       x1="121.11393"
       y1="8.337553"
       x2="123.30802"
       y2="249.24895"
       gradientUnits="userSpaceOnUse" />
  </defs>
  <sodipodi:namedview
     id="namedview1"
     pagecolor="#ffffff"
     bordercolor="#000000"
     borderopacity="0.25"
     inkscape:showpageshadow="2"
     inkscape:pageopacity="0.0"
     inkscape:pagecheckerboard="0"
     inkscape:deskcolor="#d1d1d1"
     inkscape:zoom="2.2788461"
     inkscape:cx="121.11393"
     inkscape:cy="130.10971"
     inkscape:window-width="1366"
     inkscape:window-height="697"
     inkscape:window-x="-8"
     inkscape:window-y="632"
     inkscape:window-maximized="1"
     inkscape:current-layer="g1" />
  <g
     inkscape:groupmode="layer"
     inkscape:label="Image"
     id="g1">
    <circle
       style="fill:url(#linearGradient6);fill-opacity:1"
       id="path2"
       cx="122.16034"
       cy="123.32069"
       r="116.50633" />
    <path
       style="fill:#000000"
       d="m 76.973742,192.54803 c -8.78885,-3.4204 -19.05236,-13.2269 -23.16753,-22.13594 -2.79728,-6.0559 -2.91592,-7.96727 -2.91592,-46.9794 V 82.766023 l 3.74154,-7.619252 c 4.56383,-9.293783 13.42149,-17.377137 22.94707,-20.941111 6.34035,-2.372228 10.8926,-2.681745 43.529458,-2.959652 25.24167,-0.214936 38.15296,0.181585 41.99172,1.289614 12.77015,3.686011 24.8269,15.707215 28.77209,28.687287 1.19459,3.930294 1.66913,16.599566 1.63097,43.543121 -0.0515,36.38803 -0.17989,38.27829 -3.0255,44.56044 -4.56239,10.07227 -11.36941,17.47564 -19.93555,21.68209 l -7.65179,3.75746 -39.33334,0.30174 c -37.273928,0.28595 -39.712918,0.15403 -46.583218,-2.51973 z m 85.549548,-6.50949 c 7.42137,-2.0611 15.79284,-9.13167 19.62754,-16.57748 3.36492,-6.53363 3.41134,-7.04566 3.83616,-42.31384 0.35003,-29.058892 0.0505,-37.003733 -1.61018,-42.707361 -2.9855,-10.253749 -8.92686,-17.541922 -17.88737,-21.942141 l -7.59914,-3.731695 -35.62171,0.211245 c -39.528538,0.234413 -44.246168,1.000672 -53.592538,8.704742 -2.82137,2.325607 -6.54649,7.270895 -8.27806,10.989528 -3.07706,6.608132 -3.14831,7.621174 -3.14831,44.761152 0,37.07651 0.0761,38.16334 3.12978,44.72115 3.44981,7.40843 9.35693,13.07206 17.51083,16.78906 4.744,2.16257 9.38505,2.43363 42.000008,2.45307 21.24248,0.0127 38.7558,-0.55836 41.63299,-1.35743 z M 113.55696,156.8526 c -10.13536,-2.46744 -21.518168,-12.67482 -24.755058,-22.19876 -2.71854,-7.99877 -2.20406,-18.85162 1.26717,-26.73106 3.49432,-7.931842 7.77283,-12.356211 16.103298,-16.652265 8.18607,-4.221587 22.40199,-4.332664 30.14221,-0.235518 6.45702,3.417909 14.76768,12.269243 17.37194,18.502123 2.85413,6.83089 2.40975,21.27291 -0.86256,28.03261 -7.03196,14.52609 -24.19197,22.95287 -39.267,19.28287 z m 17.70949,-8.82397 c 18.66477,-7.79672 23.26813,-31.28408 8.79198,-44.85854 -8.82805,-8.27817 -19.86331,-9.787776 -30.99587,-4.240187 -8.7334,4.352037 -13.654178,11.308577 -14.543088,20.559637 -1.94159,20.2065 18.566208,36.13363 36.746978,28.53909 z m 24.6982,-62.515151 c -3.01741,-2.623418 -3.46588,-3.702261 -2.31858,-5.577559 2.68168,-4.383276 5.62511,-5.342622 9.58907,-3.12534 4.74711,2.655354 5.38951,7.056399 1.43435,9.826701 -3.94588,2.763801 -4.28353,2.72021 -8.70484,-1.123802 z"
       id="path1" />
  </g>
</svg>
